<svg width="20" height="19" viewBox="0 0 20 19" fill="none" xmlns="http://www.w3.org/2000/svg">
<path d="M18.75 8.00279H3.925L8.4625 2.55279C8.67467 2.29751 8.77675 1.96841 8.74628 1.63788C8.7158 1.30735 8.55527 1.00246 8.3 0.790286C8.04473 0.578113 7.71563 0.476035 7.3851 0.50651C7.05456 0.536985 6.74967 0.697515 6.5375 0.952786L0.2875 8.45279C0.245451 8.51244 0.207849 8.57511 0.175 8.64029C0.175 8.70279 0.175 8.74029 0.0875002 8.80279C0.0308421 8.94611 0.0011764 9.09867 0 9.25279C0.0011764 9.4069 0.0308421 9.55946 0.0875002 9.70279C0.0875002 9.76529 0.0874998 9.80279 0.175 9.86529C0.207849 9.93046 0.245451 9.99313 0.2875 10.0528L6.5375 17.5528C6.65503 17.6939 6.8022 17.8074 6.96856 17.8851C7.13491 17.9629 7.31636 18.0031 7.5 18.0028C7.79207 18.0034 8.07511 17.9016 8.3 17.7153C8.42657 17.6103 8.5312 17.4815 8.60789 17.336C8.68458 17.1906 8.73183 17.0315 8.74692 16.8678C8.76202 16.704 8.74466 16.5389 8.69586 16.3819C8.64705 16.2249 8.56775 16.0791 8.4625 15.9528L3.925 10.5028H18.75C19.0815 10.5028 19.3995 10.3711 19.6339 10.1367C19.8683 9.90225 20 9.58431 20 9.25279C20 8.92127 19.8683 8.60332 19.6339 8.3689C19.3995 8.13448 19.0815 8.00279 18.75 8.00279Z" fill="#F53838"/>
</svg>
