<svg width="14" height="10" viewBox="0 0 14 10" fill="none" xmlns="http://www.w3.org/2000/svg">
<path d="M5.75625 9.27956C5.62499 9.27983 5.49496 9.25417 5.37363 9.20406C5.25231 9.15395 5.14207 9.08038 5.04925 8.98756L0.807252 4.74456C0.711678 4.65238 0.63542 4.54209 0.582926 4.42012C0.530433 4.29816 0.502756 4.16696 0.501509 4.03418C0.500262 3.9014 0.525471 3.76971 0.575665 3.64678C0.625859 3.52385 0.700033 3.41214 0.793858 3.31818C0.887684 3.22423 0.999282 3.1499 1.12214 3.09953C1.245 3.04916 1.37666 3.02376 1.50944 3.02482C1.64222 3.02588 1.77346 3.05337 1.8955 3.10569C2.01754 3.15802 2.12794 3.23412 2.22025 3.32956L5.75525 6.86456L12.1203 0.501561C12.3078 0.31392 12.5621 0.208452 12.8274 0.208358C13.0927 0.208264 13.3471 0.313552 13.5348 0.501061C13.7224 0.688569 13.8279 0.942937 13.828 1.20821C13.828 1.47348 13.7228 1.72792 13.5353 1.91556L6.46325 8.98756C6.37043 9.08038 6.26019 9.15395 6.13887 9.20406C6.01754 9.25417 5.88752 9.27983 5.75625 9.27956Z" fill="#2FAB73"/>
</svg>
