<svg width="20" height="19" viewBox="0 0 20 19" fill="none" xmlns="http://www.w3.org/2000/svg">
<path d="M1.25 8.00279H16.075L11.5375 2.55279C11.3253 2.29751 11.2232 1.96841 11.2537 1.63788C11.2842 1.30735 11.4447 1.00246 11.7 0.790286C11.9553 0.578113 12.2844 0.476035 12.6149 0.50651C12.9454 0.536985 13.2503 0.697515 13.4625 0.952786L19.7125 8.45279C19.7545 8.51244 19.7922 8.57511 19.825 8.64029C19.825 8.70279 19.825 8.74029 19.9125 8.80279C19.9692 8.94611 19.9988 9.09867 20 9.25279C19.9988 9.4069 19.9692 9.55946 19.9125 9.70279C19.9125 9.76529 19.9125 9.80279 19.825 9.86529C19.7922 9.93046 19.7545 9.99313 19.7125 10.0528L13.4625 17.5528C13.345 17.6939 13.1978 17.8074 13.0314 17.8851C12.8651 17.9629 12.6836 18.0031 12.5 18.0028C12.2079 18.0034 11.9249 17.9016 11.7 17.7153C11.5734 17.6103 11.4688 17.4815 11.3921 17.336C11.3154 17.1906 11.2682 17.0315 11.2531 16.8678C11.238 16.704 11.2553 16.5389 11.3041 16.3819C11.3529 16.2249 11.4322 16.0791 11.5375 15.9528L16.075 10.5028H1.25C0.91848 10.5028 0.600536 10.3711 0.366116 10.1367C0.131695 9.90225 0 9.58431 0 9.25279C0 8.92127 0.131695 8.60332 0.366116 8.3689C0.600536 8.13448 0.91848 8.00279 1.25 8.00279Z" fill="white"/>
</svg>
