<svg width="14" height="10" viewBox="0 0 14 10" fill="none" xmlns="http://www.w3.org/2000/svg">
<path d="M5.6177 9.27956C5.48644 9.27983 5.35641 9.25417 5.23508 9.20406C5.11376 9.15395 5.00352 9.08038 4.9107 8.98756L0.668702 4.74456C0.573129 4.65238 0.49687 4.54209 0.444377 4.42013C0.391883 4.29816 0.364206 4.16696 0.362959 4.03418C0.361712 3.9014 0.386921 3.76971 0.437115 3.64678C0.487309 3.52385 0.561483 3.41214 0.655308 3.31819C0.749134 3.22423 0.860732 3.1499 0.983591 3.09953C1.10645 3.04916 1.23811 3.02377 1.37089 3.02482C1.50367 3.02588 1.63491 3.05337 1.75695 3.1057C1.87899 3.15802 1.98939 3.23412 2.0817 3.32956L5.6167 6.86456L11.9817 0.501562C12.1692 0.313921 12.4236 0.208453 12.6888 0.208359C12.9541 0.208265 13.2086 0.313553 13.3962 0.501061C13.5838 0.68857 13.6893 0.942938 13.6894 1.20821C13.6895 1.47348 13.5842 1.72792 13.3967 1.91556L6.3247 8.98756C6.23188 9.08038 6.12164 9.15395 6.00032 9.20406C5.87899 9.25417 5.74897 9.27983 5.6177 9.27956Z" fill="#2FAB73"/>
</svg>
